<svg width="104" height="25" viewBox="0 0 104 25" fill="none" xmlns="http://www.w3.org/2000/svg">
    <g clip-path="url(#clip0_231_7794)">
    <path d="M0.653809 15.9724C0.653809 15.9724 3.52247 15.3452 7.12976 10.5095C10.7199 5.67373 15.1002 1.84473 21.9712 5.42616C21.9712 5.42616 16.5431 4.23785 12.6953 8.31441C8.83035 12.391 7.1813 15.9724 0.653809 15.9724Z" fill="white"/>
    <path d="M0.51709 16.7967C0.51709 16.7967 5.08633 17.2423 8.09241 14.3541C11.0985 11.4658 15.1524 5.12818 21.4909 6.06893C21.4909 6.06893 18.2787 6.44853 15.8739 9.7824C13.469 13.0833 9.99913 20.3121 0.51709 16.7967Z" fill="white"/>
    <path d="M0.653809 15.2304C0.653809 15.2304 3.38505 12.9033 4.99974 10.3947C6.08193 8.71124 6.73468 6.56568 5.65249 5.77347C5.20587 5.44339 3.7286 5.14631 3.19609 6.53267C3.00714 7.01129 3.23045 7.82 3.91755 7.82C4.58748 7.82 4.89668 7.25886 4.38135 6.31811C4.38135 6.31811 4.19239 6.07055 4.45006 5.97152C4.70772 5.8725 5.20587 6.03754 5.29176 6.79674C5.39483 7.55593 5.36047 8.61221 3.8832 8.5792C2.40592 8.54619 2.19979 6.73072 2.61205 5.69095C2.93843 4.88224 3.83166 4.15605 5.32612 4.30459C6.92363 4.45313 8.10889 6.53267 6.54573 9.3549C5.01692 12.0946 3.07585 14.2237 0.653809 15.2304Z" fill="white"/>
    <path d="M64.7277 9.12305H67.1498L68.5411 15.4277L69.9497 9.12305H72.4405L69.7951 17.8703H67.3559L65.9301 11.4832L64.47 17.8703H61.9965L59.437 9.12305H61.9965L63.4222 15.3947L64.7277 9.12305Z" fill="white"/>
    <path d="M75.1872 8.06675H72.7651V5.9707H75.1872V8.06675ZM72.7651 9.12302H75.1872V17.8703H72.7651V9.12302Z" fill="white"/>
    <path d="M81.4759 8.9082C83.6231 8.9082 84.6881 9.93147 84.6881 11.978V17.87H82.2489V12.5391C82.2489 12.077 82.1802 11.7304 82.0599 11.4829C81.8195 11.0373 81.3728 10.8062 80.7201 10.8062C79.449 10.8062 78.8134 11.5819 78.8134 13.1333V17.87H76.4429V9.13926H78.7447V10.4101C79.0539 9.96448 79.3459 9.63439 79.6207 9.43634C80.1017 9.08975 80.7201 8.9082 81.4759 8.9082Z" fill="white"/>
    <path d="M89.5484 8.9082C90.7165 8.9082 91.5754 9.40333 92.1422 10.3771V9.12276H94.4612V17.4244C94.4612 18.5467 94.2551 19.4049 93.86 19.9826C93.1729 20.9728 91.8846 21.4515 89.9435 21.4515C88.8613 21.4515 87.9853 21.2699 87.2982 20.9068C86.4393 20.4612 85.9583 19.768 85.8724 18.8273H88.4662C88.5349 19.0749 88.638 19.2729 88.7926 19.3884C89.0503 19.5865 89.4797 19.6855 90.0809 19.6855C90.9398 19.6855 91.5067 19.4049 91.7987 18.8603C91.9876 18.4972 92.0735 17.9195 92.0735 17.0943V16.5332C91.8502 16.8963 91.6097 17.1934 91.3349 17.3749C90.8539 17.7215 90.2355 17.903 89.4797 17.903C88.2086 17.903 87.2466 17.4574 86.5423 16.5827C85.9239 15.7905 85.6147 14.7672 85.6147 13.5129C85.6147 12.2421 85.9239 11.1858 86.5252 10.3441C87.2982 9.38683 88.2773 8.9082 89.5484 8.9082ZM90.1496 16.0051C90.8367 16.0051 91.3692 15.741 91.7128 15.1963C91.9876 14.7507 92.1422 14.1731 92.1422 13.4634C92.1422 12.7372 92.0048 12.1595 91.7128 11.7139C91.3692 11.1693 90.8367 10.9052 90.1325 10.9052C88.8098 10.9052 88.1399 11.78 88.1399 13.5294C88.1399 14.041 88.2257 14.4867 88.4147 14.8828C88.7411 15.6255 89.3251 16.0051 90.1496 16.0051Z" fill="white"/>
    <path d="M97.8634 15.0804C97.9149 15.493 98.018 15.7901 98.1897 15.9551C98.4817 16.2687 99.0314 16.4173 99.8216 16.4173C100.835 16.4173 101.35 16.1532 101.35 15.6086C101.35 15.229 100.955 14.9154 100.165 14.6843C99.6155 14.5688 99.083 14.4533 98.5333 14.3212C97.6229 14.1067 96.9701 13.8591 96.575 13.562C96.0082 13.1494 95.7162 12.5718 95.7162 11.8126C95.7162 10.8553 96.1112 10.1126 96.9014 9.56799C97.6057 9.08936 98.4646 8.8418 99.4952 8.8418C101.986 8.8418 103.326 9.81555 103.515 11.7631H101.127C101.041 10.9874 100.509 10.5913 99.5296 10.5913C98.5676 10.5913 98.0867 10.8553 98.0867 11.367C98.0867 11.73 98.4818 12.0271 99.2891 12.2582C99.8388 12.3572 100.388 12.4727 100.938 12.5883C102.828 13.0009 103.772 13.8756 103.772 15.2125C103.772 16.2522 103.343 17.0444 102.467 17.5396C101.763 17.9522 100.818 18.1667 99.6498 18.1667C98.4646 18.1667 97.5026 17.9357 96.764 17.49C95.8879 16.9454 95.4585 16.1367 95.4585 15.0639H97.8634" fill="white"/>
    <path d="M23.2769 6.07031H27.0387L29.8731 14.0749H29.9074L32.6043 6.07031H36.349V17.7388H33.8583V9.45369H33.8239L30.8522 17.7388H28.7909L25.8191 9.53621H25.7848V17.7388H23.2769V6.07031Z" fill="white"/>
    <path d="M41.4176 6.07031H44.166L48.7009 17.7388H45.9181L45.0077 15.1312H40.4556L39.5108 17.7388H36.814L41.4176 6.07031ZM41.1599 13.2167H44.3206L42.7918 8.92556H42.7574L41.1599 13.2167Z" fill="white"/>
    <path d="M50.8126 13.8588C50.8126 15.4267 52.0837 16.0208 53.4923 16.0208C54.437 16.0208 55.8456 15.7568 55.8456 14.552C55.8456 13.2976 54.042 13.0831 52.2555 12.6375C50.4518 12.1753 48.631 11.5152 48.631 9.3201C48.631 6.94348 50.9843 5.80469 53.1659 5.80469C55.691 5.80469 58.0272 6.86096 58.0272 9.55116H55.4505C55.3646 8.1483 54.3168 7.7852 53.0628 7.7852C52.2211 7.7852 51.2248 8.11529 51.2248 9.10555C51.2248 10.0133 51.8089 10.1288 54.8493 10.8715C55.7254 11.0861 58.4566 11.6307 58.4566 14.2714C58.4566 16.4169 56.7045 18.0179 53.4064 18.0179C50.7267 18.0179 48.2187 16.747 48.2359 13.8588H50.8126Z" fill="white"/>
    </g>
    <defs>
    <clipPath id="clip0_231_7794">
    <rect width="103.255" height="24.5254" fill="white" transform="translate(0.51709 0.474609)"/>
    </clipPath>
    </defs>
    </svg>
    