<svg width="58" height="36" viewBox="0 0 58 36" fill="none" xmlns="http://www.w3.org/2000/svg">
    <g clip-path="url(#clip0_231_7840)">
    <path d="M0.783203 35.9645V33.8326H1.74385C1.93924 33.8159 2.13463 33.8828 2.28931 34.0249C2.387 34.1168 2.43585 34.2506 2.42771 34.3844V34.3927C2.42771 34.585 2.32187 34.769 2.15091 34.8526C2.37886 34.9195 2.54168 35.1285 2.54168 35.3793V35.3876C2.54982 35.5632 2.46841 35.7304 2.33001 35.8224C2.15905 35.9311 1.96366 35.9812 1.76828 35.9645H0.783203ZM1.23096 34.6937H1.6543C1.87411 34.6937 1.97995 34.6185 1.97995 34.468V34.4596C1.97995 34.3175 1.88225 34.2423 1.67873 34.2423H1.23096V34.6937ZM1.23096 35.5548H1.77642C1.98809 35.5548 2.10206 35.4796 2.10206 35.3207V35.3124C2.10206 35.1535 1.98809 35.0783 1.76828 35.0783H1.23911V35.5548H1.23096Z" fill="white"/>
    <path d="M3.58299 35.9653V35.1293L2.78516 33.8418H3.32247L3.81908 34.6946L4.32383 33.8418H4.84486L4.04703 35.1209V35.9653H3.58299Z" fill="white"/>
    <path d="M6.15625 35.9659V33.834H6.64472L7.19017 34.7369L7.73563 33.834H8.22409V35.9659H7.76819V34.5697L7.18203 35.481H7.17389L6.59587 34.5781V35.9659H6.15625Z" fill="white"/>
    <path d="M8.63281 35.965L9.52019 33.8164H9.94353L10.8309 35.965H10.3506L10.1633 35.4885H9.2841L9.09686 35.965H8.63281ZM9.44692 35.0788H10.0005L9.72372 34.3849L9.44692 35.0788Z" fill="white"/>
    <path d="M11.2207 35.9639V33.832H11.6766V35.5376H12.7105V35.9639H11.2207Z" fill="white"/>
    <path d="M12.9551 35.965L13.8425 33.8164H14.2658L15.1532 35.965H14.6729L14.4856 35.4885H13.6064L13.4191 35.965H12.9551ZM13.7692 35.0788H14.3228L14.046 34.3849L13.7692 35.0788Z" fill="white"/>
    <path d="M16.1299 35.9653V35.1293L15.332 33.8418H15.8693L16.366 34.6946L16.8707 33.8418H17.3917L16.5939 35.1209V35.9653H16.1299Z" fill="white"/>
    <path d="M18.4808 35.9984C18.1552 36.0068 17.8377 35.8814 17.6016 35.6556L17.8702 35.3212C18.0412 35.4801 18.261 35.572 18.4889 35.5804C18.6843 35.5804 18.7902 35.5135 18.7902 35.3797C18.7902 35.3212 18.7576 35.2627 18.7088 35.2292C18.6029 35.1707 18.4889 35.1289 18.375 35.1038C18.1959 35.0704 18.0249 34.9952 17.8702 34.8948C17.74 34.7861 17.6748 34.6189 17.683 34.4517V34.4434C17.6748 34.2678 17.7481 34.0922 17.8865 33.9752C18.033 33.8498 18.2203 33.7913 18.4075 33.7996C18.6843 33.7913 18.9611 33.8916 19.1809 34.0671L18.9448 34.4183C18.7902 34.2929 18.6029 34.2176 18.4075 34.2093C18.3343 34.2009 18.2691 34.226 18.2121 34.2594C18.1714 34.2929 18.1389 34.343 18.1389 34.3932V34.4016C18.1389 34.4684 18.1714 34.527 18.2284 34.5604C18.3424 34.6189 18.4645 34.6607 18.5866 34.6858C18.7657 34.7193 18.9286 34.7945 19.0751 34.9115C19.1891 35.0202 19.2542 35.1707 19.2461 35.3296V35.3379C19.2542 35.5219 19.1809 35.7058 19.0344 35.8228C18.8716 35.9399 18.6762 36.0068 18.4808 35.9984Z" fill="white"/>
    <path d="M19.7344 35.9659V33.834H20.1903V35.9659H19.7344Z" fill="white"/>
    <path d="M20.6074 35.965L21.4948 33.8164H21.9181L22.8055 35.965H22.3252L22.138 35.4885H21.2587L21.0715 35.965H20.6074ZM21.4215 35.0788H21.9751L21.6983 34.3849L21.4215 35.0788Z" fill="white"/>
    <path d="M23.9844 35.965L24.8718 33.8164H25.2951L26.1825 35.965H25.7021L25.5149 35.4885H24.6357L24.4484 35.965H23.9844ZM24.7985 35.0788H25.3521L25.0753 34.3849L24.7985 35.0788Z" fill="white"/>
    <path d="M26.5996 35.9659V33.834H27.0555V35.9659H26.5996Z" fill="white"/>
    <path d="M27.6484 35.9647V33.8328H28.5928C28.7882 33.8245 28.9917 33.883 29.1464 34C29.3011 34.1338 29.3825 34.3261 29.3744 34.5351V34.5435C29.3906 34.8444 29.2115 35.112 28.9266 35.2039L29.4313 35.9647H28.894L28.4463 35.2792H28.0881V35.9647H27.6484ZM28.1043 34.8695H28.5684C28.6579 34.8779 28.7556 34.8444 28.8289 34.7859C28.894 34.7274 28.9266 34.6521 28.9184 34.5685V34.5602C28.9184 34.3595 28.7963 34.2592 28.5602 34.2592H28.1043V34.8695Z" fill="white"/>
    <path d="M29.8633 35.9659V33.834H30.3192V35.5395H31.3531V35.9659H29.8633Z" fill="white"/>
    <path d="M31.793 35.9659V33.834H32.2489V35.9659H31.793Z" fill="white"/>
    <path d="M32.8438 35.9639V33.832H33.2671L34.2359 35.1446V33.832H34.6836V35.9639H34.2929L33.2915 34.6095V35.9639H32.8438Z" fill="white"/>
    <path d="M35.2598 35.9659V33.834H36.8229V34.252H35.7075V34.6867H36.6845V35.1048H35.7075V35.5562H36.831V35.9743L35.2598 35.9659Z" fill="white"/>
    <path d="M38.0609 35.9984C37.7352 36.0068 37.4177 35.8814 37.1816 35.6556L37.4503 35.3212C37.6213 35.4801 37.8411 35.572 38.069 35.5804C38.2644 35.5804 38.3702 35.5135 38.3702 35.3797C38.3702 35.3212 38.3377 35.2627 38.2888 35.2292C38.183 35.1707 38.069 35.1289 37.955 35.1038C37.7759 35.0704 37.605 34.9952 37.4503 34.8948C37.32 34.7861 37.2549 34.6189 37.2631 34.4517V34.4434C37.2549 34.2678 37.3282 34.0922 37.4666 33.9752C37.6131 33.8498 37.8004 33.7913 37.9876 33.7996C38.2644 33.7913 38.5412 33.8916 38.761 34.0671L38.5249 34.4183C38.3702 34.2929 38.183 34.2176 37.9876 34.2093C37.9143 34.2009 37.8492 34.226 37.7922 34.2594C37.7515 34.2929 37.719 34.343 37.719 34.3932V34.4016C37.719 34.4684 37.7515 34.527 37.8085 34.5604C37.9225 34.6189 38.0446 34.6607 38.1667 34.6858C38.3458 34.7193 38.5086 34.7945 38.6552 34.9115C38.7692 35.0202 38.8343 35.1707 38.8261 35.3296V35.3379C38.8343 35.5219 38.761 35.7058 38.6145 35.8228C38.4517 35.9399 38.2563 36.0068 38.0609 35.9984Z" fill="white"/>
    <path d="M8.54963 30.2378C8.70432 30.6307 9.00554 30.9484 9.38817 31.1156V31.1574H6.08288C5.87935 31.1574 5.70839 30.9902 5.70839 30.7728V30.7645C5.70839 30.5555 5.53742 30.3799 5.3339 30.3799C5.25248 30.3799 5.17921 30.405 5.11409 30.4551C4.56863 30.915 3.90106 31.1909 3.20092 31.2577C1.95533 31.3497 0.872565 30.3966 0.783013 29.1175C0.774872 29.0506 0.774872 28.9921 0.774872 28.9252C0.742308 28.3316 0.945835 27.7464 1.32847 27.2949C1.91463 26.7264 2.56592 26.2415 3.27419 25.8485C3.98247 25.4472 4.65004 24.9623 5.26062 24.4105C5.60255 24.0511 5.7898 23.5578 5.77352 23.0478C5.7898 22.6632 5.68396 22.287 5.48043 21.9693C5.30133 21.6934 4.99197 21.5262 4.66632 21.5346C3.99061 21.5346 2.84271 22.2786 1.21449 23.7668L1.17379 23.725L2.67175 21.6683C2.72874 21.5931 2.81829 21.5346 2.90784 21.5178C3.87664 21.3339 4.86171 21.2336 5.85493 21.2085C6.55506 21.1416 7.24706 21.3757 7.77623 21.8439C8.18328 22.287 8.40309 22.889 8.37867 23.4993V28.7747C8.36239 29.268 8.41938 29.7612 8.54963 30.2378ZM5.40717 29.9368C5.61883 29.6609 5.73281 29.3181 5.71653 28.967V25.2132C5.71653 25.0041 5.54556 24.8286 5.34204 24.8286C5.25248 24.8286 5.17107 24.862 5.10594 24.9205C4.69075 25.255 4.29997 25.6312 3.94176 26.0241C3.53471 26.6261 3.33118 27.3451 3.34746 28.0808V28.2981C3.33118 28.8081 3.47772 29.3014 3.75452 29.7194C3.94176 30.0538 4.27555 30.2628 4.6419 30.2963C4.93498 30.3046 5.21992 30.1709 5.40717 29.9368Z" fill="white"/>
    <path d="M23.5531 30.2379C23.7078 30.6308 24.009 30.9485 24.3916 31.1157V31.1575H19.8326V31.1157C20.1582 30.9234 20.4025 30.6141 20.5083 30.2462C20.6304 29.7613 20.6874 29.2681 20.6711 28.7664V23.4325C20.6711 22.6132 20.3943 22.1951 19.8326 22.1951C19.336 22.1951 18.8475 22.354 18.4405 22.6466V28.7581C18.4242 29.2597 18.473 29.753 18.587 30.2379C18.6928 30.6141 18.9452 30.9234 19.2871 31.1073V31.1492H14.8747V31.1073C15.2085 30.9151 15.4527 30.5974 15.5585 30.2295C15.6888 29.753 15.7458 29.2597 15.7295 28.7581V23.4241C15.7376 23.1148 15.6644 22.8138 15.5178 22.5463C15.3794 22.3122 15.1352 22.1784 14.8665 22.1951C14.435 22.1951 14.0117 22.3122 13.6454 22.5379C13.5395 22.6048 13.4744 22.7218 13.4744 22.8556V28.7748C13.4581 29.2764 13.5151 29.778 13.6291 30.2629C13.7349 30.6308 13.9791 30.9485 14.3129 31.1241V31.1659H9.75391V31.1241C10.1365 30.9569 10.4378 30.6392 10.5924 30.2462C10.7227 29.7697 10.7797 29.2764 10.7634 28.7748V23.7585C10.7797 23.2653 10.7227 22.7636 10.5924 22.2871C10.4378 21.8942 10.1365 21.5765 9.75391 21.4009V21.3591H13.1162C13.3197 21.3591 13.4825 21.5263 13.4825 21.7353V21.7437C13.4825 21.9527 13.6454 22.1115 13.8489 22.1115C13.9059 22.1115 13.971 22.0948 14.0198 22.0697C14.8421 21.5765 15.7783 21.2922 16.7308 21.242C17.3496 21.1584 17.9601 21.4678 18.2777 22.0196C18.3672 22.2035 18.587 22.2787 18.758 22.1868C18.7661 22.1868 18.7661 22.1784 18.7743 22.1784C19.6454 21.6183 20.6467 21.2922 21.6725 21.242C22.1528 21.1919 22.6331 21.3591 22.9914 21.6935C23.2682 22.0196 23.4066 22.4376 23.3903 22.8723V28.7748C23.3658 29.2681 23.4228 29.7613 23.5531 30.2379Z" fill="white"/>
    <path d="M32.7199 30.2378C32.8746 30.6307 33.1758 30.9484 33.5584 31.1156V31.1574H30.245C30.0415 31.1574 29.8705 30.9902 29.8705 30.7728V30.7645C29.8705 30.5555 29.6995 30.3799 29.496 30.3799C29.4146 30.3799 29.3413 30.405 29.2762 30.4551C28.7307 30.915 28.0632 31.1909 27.363 31.2577C26.1174 31.3497 25.0347 30.3966 24.9451 29.1175C24.937 29.0506 24.937 28.9921 24.937 28.9252C24.9044 28.3316 25.1079 27.7464 25.4906 27.2949C26.0767 26.7264 26.728 26.2415 27.4363 25.8485C28.1446 25.4472 28.8122 24.9623 29.4227 24.4105C29.7647 24.0511 29.9519 23.5578 29.9356 23.0478C29.9519 22.6632 29.8461 22.287 29.6425 21.9693C29.4634 21.6934 29.1541 21.5262 28.8284 21.5346C28.1527 21.5346 27.0048 22.2786 25.3766 23.7668L25.3359 23.725L26.8339 21.6683C26.8908 21.5931 26.9804 21.5346 27.07 21.5178C28.0387 21.3339 29.0238 21.2336 30.017 21.2085C30.7172 21.1416 31.4092 21.3757 31.9383 21.8439C32.3454 22.287 32.5652 22.889 32.5408 23.4993V28.7747C32.5326 29.268 32.5896 29.7612 32.7199 30.2378ZM29.5693 29.9368C29.7809 29.6609 29.8949 29.3181 29.8786 28.967V25.2132C29.8786 25.0041 29.7077 24.8286 29.5041 24.8286C29.4146 24.8286 29.3332 24.862 29.2681 24.9205C28.8529 25.255 28.4621 25.6312 28.1039 26.0241C27.6968 26.6261 27.4933 27.3451 27.5096 28.0808V28.2981C27.4933 28.8081 27.6398 29.3014 27.9166 29.7194C28.1039 30.0538 28.4377 30.2628 28.804 30.2963C29.0971 30.3046 29.382 30.1709 29.5693 29.9368Z" fill="white"/>
    <path d="M34.0391 31.1235C34.4217 30.9563 34.7229 30.6386 34.8776 30.2457C35.0079 29.7691 35.0648 29.2759 35.0486 28.7742V19.8286C35.0648 19.3353 35.0079 18.8337 34.8776 18.3571C34.7229 17.9642 34.4217 17.6465 34.0391 17.4793V17.4375H37.3851C37.5886 17.4375 37.7595 17.6131 37.7595 17.8221V28.7659C37.7433 29.2591 37.8003 29.7608 37.9305 30.2373C38.0852 30.6303 38.3864 30.948 38.769 31.1152V31.157H34.0391V31.1235Z" fill="white"/>
    <path d="M55.5928 23.6172L55.3078 21.4017C54.6891 21.5773 51.913 19.9972 51.8235 19.8718C51.4245 19.6962 51.7095 20.5239 51.8804 20.9335L52.4178 22.2545C52.5887 23.0654 52.3201 23.9098 51.7095 24.4616L52.8004 28.1068L52.4829 25.9247C53.4272 25.3311 54.0053 24.2777 54.0053 23.1407C54.681 23.4751 55.3567 23.7426 55.5928 23.6172Z" fill="white"/>
    <path d="M54.8193 28.8519L49.5927 20.3912C47.826 17.8496 47.1015 14.7061 47.5737 11.6211L46.6374 14.9569C46.0513 16.9634 46.2141 19.1288 47.0852 21.0266C47.248 21.3694 47.4353 21.7121 47.6307 22.0382L52.9794 30.733C53.4109 31.4353 53.5411 32.7813 52.8898 33.2579L52.7677 33.3415C52.3851 33.5589 51.9617 33.6926 51.5303 33.7511C49.5845 33.9852 47.8016 32.7981 46.2955 30.7748C44.594 28.4924 43.9753 27.3136 43.8776 25.3238C43.845 24.2871 44.0241 23.2588 44.4068 22.2974C43.7474 23.3926 43.1775 24.538 42.7216 25.7419C41.9726 27.5059 42.575 29.8803 43.5275 31.5022C44.9522 33.8765 47.5981 35.1808 50.2928 34.8296C51.2209 34.7126 52.1164 34.4116 52.9305 33.9518H52.9468C53.0119 33.9184 53.0852 33.8682 53.1503 33.8264C53.1666 33.818 53.1748 33.8097 53.191 33.8013C54.1436 33.2579 54.8763 32.3717 55.2507 31.3183C55.4217 30.4655 55.267 29.5793 54.8193 28.8519Z" fill="white"/>
    <path d="M55.8444 17.0469L51.6191 10.0994C49.1035 5.56805 49.364 2.83419 49.8118 0.0418021V0C49.5432 0.685555 49.3152 1.38783 49.1361 2.09847C48.5662 4.19693 47.9312 9.29679 50.0316 12.3233L55.1198 20.667C57.5703 25.2903 56.4305 27.6145 56.4305 27.6145C58.7345 24.6883 57.7575 20.2239 55.8444 17.0469Z" fill="white"/>
    </g>
    <defs>
    <clipPath id="clip0_231_7840">
    <rect width="57" height="36" fill="white" transform="translate(0.771484)"/>
    </clipPath>
    </defs>
    </svg>
    