<svg width="103" height="26" viewBox="0 0 103 26" fill="none" xmlns="http://www.w3.org/2000/svg">
    <g clip-path="url(#clip0_231_7751)">
    <path d="M102.279 9.82768C102.245 9.82768 101.698 9.79356 101.698 9.79356C99.4084 9.62297 99.4767 7.57594 99.4767 7.57594C99.5109 5.05127 98.0756 1.02544 92.3688 0.786621H82.5272L82.3905 1.26426H90.6261C91.4804 1.26426 92.0613 1.87837 91.7879 2.90189L90.3185 8.25829C89.7717 9.86179 88.2682 9.79356 88.2682 9.79356C86.7646 9.65709 87.1747 8.22417 87.1747 8.22417L87.8581 5.76773C88.0631 4.94892 87.4822 4.53951 86.9696 4.50539H81.502L81.3654 4.98304H83.6891C84.5434 5.01715 84.7484 5.63126 84.5776 6.21125C84.5776 6.21125 84.27 7.23477 83.9283 8.49711C83.5866 9.72533 82.4247 9.75944 82.288 9.75944H79.9985L79.8276 10.3394H81.9805C82.2197 10.3394 83.3815 10.3736 83.0398 11.6359C82.6639 12.9323 82.3905 13.9217 82.3905 13.9217C82.2197 14.5017 81.6729 15.15 80.8186 15.15H78.4607L78.324 15.6276H83.7916C84.3042 15.5935 85.1243 15.2182 85.3977 14.3653L86.0811 11.9088C86.0811 11.9088 86.457 10.4759 88.029 10.3394C88.029 10.3394 89.5667 10.2712 89.225 11.8747L87.8239 17.3335C87.5505 18.3229 86.6279 18.937 85.7736 18.937H77.5039L77.3672 19.4487H87.2088C93.0181 19.2099 96.6746 15.1841 98.0415 12.6594C98.0415 12.6594 99.135 10.6124 101.493 10.4418L102.074 10.4077C102.074 10.4077 102.108 10.4077 102.108 10.3736C102.21 10.2712 102.313 9.86179 102.279 9.82768C102.313 9.82768 102.313 9.82768 102.279 9.82768Z" fill="white"/>
    <mask id="mask0_231_7751" style="mask-type:luminance" maskUnits="userSpaceOnUse" x="77" y="0" width="26" height="20">
    <path d="M82.5272 0.786621L82.3905 1.26426H90.6261C91.4804 1.29838 92.0613 1.87837 91.7879 2.90189L90.3185 8.25829C89.7717 9.86179 88.2682 9.79356 88.2682 9.79356C86.7646 9.65709 87.1747 8.22417 87.1747 8.22417L87.8581 5.76773C88.0631 4.94892 87.4822 4.53951 86.9696 4.50539H81.502L81.3654 4.98304H83.6891C84.5434 5.01715 84.7484 5.63126 84.5776 6.21125C84.5776 6.21125 84.27 7.23477 83.9283 8.49711C83.5866 9.72533 82.4247 9.75944 82.288 9.75944H79.9985L79.8276 10.3394H81.9805C82.2197 10.3394 83.3815 10.3736 83.0398 11.6359C82.6639 12.9323 82.3905 13.9217 82.3905 13.9217C82.2197 14.5017 81.6729 15.15 80.8186 15.15H78.4607L78.324 15.6276H83.7916C84.3042 15.5935 85.1243 15.2182 85.3977 14.3653L86.0811 11.9088C86.0811 11.9088 86.457 10.4759 88.029 10.3394C88.029 10.3394 89.5667 10.2712 89.225 11.8747L87.8239 17.3335C87.5505 18.3229 86.6279 18.937 85.7736 18.937H77.5039L77.3672 19.4487H87.2088C93.0181 19.2099 96.6746 15.1841 98.0415 12.6594C98.0415 12.6594 99.135 10.6124 101.493 10.4418L102.074 10.4077C102.074 10.4077 102.108 10.4077 102.108 10.3736C102.142 10.2712 102.245 9.89591 102.245 9.86179C102.245 9.82768 102.245 9.82768 102.21 9.82768C102.176 9.82768 101.63 9.79356 101.63 9.79356C99.34 9.62297 99.4083 7.57594 99.4083 7.57594C99.4425 5.05127 98.0073 1.02544 92.3005 0.786621H82.5272Z" fill="white"/>
    </mask>
    <g mask="url(#mask0_231_7751)">
    <path d="M102.688 0.308105H79.5879V10.0997H102.688V0.308105Z" fill="white"/>
    </g>
    <path d="M14.079 10.6142C13.7715 10.2389 13.1906 9.76123 12.0629 9.76123H2.83635L0.205078 19.4505H2.80218L4.85252 11.9106H7.17624L5.12589 19.4505H7.72299L9.77333 11.9106H10.7643C11.1744 11.9106 11.4819 12.013 11.6186 12.2177C11.8578 12.5247 11.7895 12.9682 11.7212 13.2071L10.0125 19.4505H12.6096L14.4549 12.7294C14.66 11.9447 14.5233 11.1942 14.079 10.6142Z" fill="white"/>
    <path d="M24.8093 10.7156C24.3651 10.1356 23.545 9.79443 22.6565 9.79443H17.0522L16.5055 11.8073H21.3921C21.9047 11.8073 22.2464 11.9438 22.4514 12.1485C22.6565 12.3873 22.6565 12.7285 22.554 13.2062L22.4514 13.5814H18.3508C16.5055 13.5814 15.036 14.7073 14.5576 16.4814C14.3184 17.3685 14.3868 18.1531 14.831 18.6649C15.2411 19.1767 15.9245 19.4155 16.813 19.4155H23.4766L25.1852 13.2062C25.4244 12.1826 25.3219 11.3297 24.8093 10.7156ZM21.3921 17.4367H18.2482C17.9407 17.4367 17.5306 17.4026 17.3598 17.1979C17.2572 17.0614 17.2231 16.8567 17.3256 16.5496C17.5648 15.7308 18.2141 15.6285 18.8292 15.6285H21.8705L21.3921 17.4367Z" fill="white"/>
    <path d="M39.7761 10.6824C39.3319 10.1024 38.5118 9.76123 37.6233 9.76123H32.019L31.4723 11.7741H36.3589C36.8715 11.7741 37.2132 11.9106 37.4182 12.1153C37.6233 12.3541 37.6233 12.6953 37.5208 13.173L37.4182 13.5482H33.3176C31.4723 13.5482 30.0028 14.6741 29.5244 16.4482C29.2852 17.3352 29.3536 18.1199 29.7978 18.6317C30.2079 19.1435 30.8913 19.3823 31.7798 19.3823H38.4434L40.152 13.173C40.3571 12.1836 40.2545 11.3306 39.7761 10.6824ZM36.3589 17.4376H33.215C32.9075 17.4376 32.4974 17.4035 32.3266 17.1988C32.224 17.0623 32.1899 16.8576 32.2582 16.5506C32.4974 15.7317 33.1467 15.6294 33.7618 15.6294H36.8715L36.3589 17.4376Z" fill="white"/>
    <path d="M48.9354 9.79535L46.885 17.3352H44.3221C43.912 17.3352 43.6045 17.2329 43.4678 17.0282C43.2286 16.7211 43.2969 16.2776 43.3653 16.0047L45.0739 9.76123H42.4768L40.6998 16.2435C40.4264 17.2329 40.4948 18.0176 40.939 18.5635C41.52 19.2799 42.511 19.4164 43.2969 19.4164H46.3041L46.0307 20.3717C45.8598 20.9517 45.1764 21.5658 44.2537 21.5658H39.5038L38.957 23.5787H44.4929C46.0307 23.5787 48.1494 22.2481 48.662 20.3376L51.5666 9.76123H48.9354V9.79535Z" fill="white"/>
    <path d="M60.5525 14.3661C60.1424 13.8544 59.459 13.6156 58.5705 13.6156H55.905C55.5975 13.6156 55.1533 13.5814 54.9482 13.3426C54.8457 13.2062 54.8115 13.0014 54.8799 12.7285C55.1191 11.9097 55.7684 11.8073 56.4176 11.8073H61.5777L62.1244 9.79443H55.9392C54.0939 9.79443 52.6245 10.9203 52.1461 12.6944C51.9069 13.5814 52.0094 14.332 52.4195 14.8438C52.8295 15.3555 53.513 15.5944 54.4015 15.5944H57.0669C57.3745 15.5944 57.8187 15.6285 57.9896 15.8673C58.0921 16.0038 58.1262 16.2085 58.0579 16.4814C57.8187 17.3002 57.1694 17.4026 56.5201 17.4026H50.8475L50.3008 19.4155H56.9986C58.8439 19.4155 60.3133 18.2896 60.7917 16.5155C61.0309 15.6285 60.9626 14.8779 60.5525 14.3661Z" fill="white"/>
    <path d="M63.8344 9.79443L61.2031 19.4496H63.8002L66.4315 9.79443H63.8344Z" fill="white"/>
    <path d="M75.9645 10.6824C75.5202 10.1024 74.7001 9.76123 73.7775 9.76123H68.1732L67.6264 11.7741H72.5131C73.0257 11.7741 73.3674 11.9106 73.5724 12.1153C73.7433 12.3541 73.7775 12.6953 73.6749 13.173L73.5724 13.5482H69.4717C67.6264 13.5482 66.157 14.6741 65.6786 16.4482C65.4394 17.3352 65.5077 18.1199 65.9178 18.6317C66.3279 19.1435 67.0113 19.3823 67.8998 19.3823H74.5634L76.272 13.173C76.5796 12.1836 76.4771 11.3306 75.9645 10.6824ZM72.5472 17.4376H69.3692C69.0617 17.4376 68.6516 17.4035 68.4807 17.1988C68.3782 17.0623 68.344 16.8576 68.4124 16.5506C68.6174 15.7317 69.3009 15.6294 69.916 15.6294H73.0257L72.5472 17.4376Z" fill="white"/>
    <path d="M28.2952 7.16748L24.9121 19.4497H27.5092L30.8581 7.16748H28.2952Z" fill="white"/>
    <path d="M53.3778 21.9062C53.1386 21.5991 52.7285 21.5991 52.626 21.5991H49.8239L49.653 22.2132H52.216C52.421 22.2132 52.5919 22.2815 52.6944 22.3838C52.7627 22.4862 52.7627 22.6226 52.7285 22.7932C52.6944 22.9297 52.5919 23.3391 52.5919 23.3391H50.644C49.7214 23.3391 49.0721 23.8167 48.8671 24.6697C48.7646 25.0791 48.8671 25.3861 49.0379 25.5908C49.2088 25.8297 49.5505 25.932 50.0289 25.932H52.6602L53.4803 22.8615C53.5829 22.4521 53.5487 22.145 53.3778 21.9062ZM52.0451 25.352H50.3365C50.0289 25.352 49.8239 25.2838 49.7214 25.1473C49.6189 25.045 49.5847 24.8744 49.653 24.6356C49.7897 24.1579 50.1314 23.9191 50.7124 23.9191H52.4552L52.0451 25.352Z" fill="white"/>
    <path d="M54.1287 25.9661L55.2906 21.5991H54.5388L53.377 25.9661H54.1287Z" fill="white"/>
    <path d="M58.367 25.9669L59.8706 20.4058H59.1188L57.6152 25.9669H58.367Z" fill="white"/>
    <path d="M59.8709 25.9661L61.0328 21.5991H60.281L59.1191 25.9661H59.8709Z" fill="white"/>
    <path d="M64.0393 21.5991H61.7839L60.5879 25.9661H61.3397L62.3649 22.2473H63.7659C64.0735 22.2473 64.2785 22.3156 64.381 22.4862C64.5177 22.6909 64.4494 22.9297 64.381 23.2709L63.6292 25.9661H64.381L65.167 23.0662C65.3037 22.5885 65.2353 22.2473 65.0645 22.0085C64.8936 21.7356 64.5519 21.5991 64.0393 21.5991Z" fill="white"/>
    <path d="M66.534 23.4064C66.739 22.9288 67.2516 22.2464 68.1401 22.2464H69.6778L69.8487 21.6323H68.0034C66.7048 21.6323 65.8505 22.7241 65.543 23.8158C65.3379 24.4982 65.4063 25.1464 65.7138 25.5217C65.953 25.8287 66.3289 25.9993 66.8074 25.9993H68.6185L68.7894 25.3852H67.2516C66.8757 25.3852 66.6023 25.317 66.4315 25.1123C66.2606 24.9076 66.2264 24.4982 66.3289 24.1229V24.0888H69.0286L69.1994 23.4747H66.4998L66.534 23.4064Z" fill="white"/>
    <path d="M74.0175 22.2464L74.1884 21.6323H71.7963C70.5661 21.6323 70.1902 22.417 70.0535 22.8947C69.951 23.2358 70.0194 23.5429 70.156 23.7135C70.3269 23.9523 70.6003 24.0546 71.0787 24.0546H72.2406C72.9582 24.0546 72.8215 24.6005 72.7873 24.7711C72.6165 25.317 72.0355 25.3852 71.4204 25.3852H69.3701L69.1992 25.9993H72.0697C72.8215 25.9993 73.4024 25.5217 73.6074 24.7711C73.6758 24.3958 73.6074 24.0888 73.4366 23.8499C73.2657 23.6452 72.9924 23.5088 72.4798 23.5088H71.4546C71.3521 23.5088 71.0104 23.5088 70.9078 23.3382C70.8395 23.2358 70.8395 23.0994 70.8737 22.9288C71.0445 22.3829 71.5229 22.3147 71.7621 22.3147H74.0175V22.2464Z" fill="white"/>
    <path d="M57.2729 21.5991C55.9744 21.5991 55.701 22.8273 55.701 22.8956C55.6668 22.9979 54.8809 25.9661 54.8809 25.9661H55.6326C55.6326 25.9661 56.4186 23.1003 56.4528 22.9979C56.487 22.8615 56.692 22.2132 57.4438 22.2132H58.0931L58.2639 21.5991H57.2729Z" fill="white"/>
    </g>
    <defs>
    <clipPath id="clip0_231_7751">
    <rect width="102.517" height="25.2467" fill="white" transform="translate(0 0.753418)"/>
    </clipPath>
    </defs>
    </svg>
    