<svg width="100" height="44" viewBox="0 0 100 44" fill="none" xmlns="http://www.w3.org/2000/svg">
    <path d="M31.7587 23.3151C31.7587 22.4252 31.8999 21.6693 32.1846 21.0586C32.4716 20.448 32.8361 19.9531 33.287 19.5808C33.7312 19.2063 34.2368 18.9407 34.8108 18.8022C35.3779 18.6546 35.9428 18.5775 36.5122 18.5775H36.8288V16.9771H36.5122C33.9453 16.9952 31.9842 17.6445 30.6244 18.927C29.267 20.2051 28.5859 21.9462 28.5859 24.1618V36.5519H31.7587V27.3377H36.847V26.0823H31.7587V23.3128V23.3151Z" fill="white"/>
    <path d="M70.3017 23.3151C70.3017 22.4252 70.4406 21.6693 70.7299 21.0586C71.0146 20.448 71.3768 19.9531 71.83 19.5808C72.281 19.2063 72.7889 18.9407 73.356 18.8022C73.9232 18.6546 74.4972 18.5775 75.0552 18.5775H75.3718V16.9771H75.0552C72.4905 16.9952 70.5317 17.6445 69.172 18.927C67.8099 20.2051 67.1289 21.9462 67.1289 24.1618V36.5519H70.2994V27.3377H75.4014V26.0823H70.2994V23.3128L70.3017 23.3151Z" fill="white"/>
    <path d="M42.5437 22.7114H39.3755V36.4726H42.5437V22.7114Z" fill="white"/>
    <path d="M40.8787 15.9668C40.3115 15.9668 39.8287 16.1666 39.4301 16.5706C39.036 16.9724 38.8379 17.4582 38.8379 18.0303C38.8379 18.6024 39.036 19.0791 39.4301 19.4809C39.8287 19.8872 40.3115 20.0847 40.8787 20.0847C41.1178 20.0847 41.3593 20.0325 41.6098 19.9258C41.8558 19.81 42.0813 19.6602 42.2863 19.4672C42.489 19.2743 42.6507 19.0564 42.7691 18.8089C42.8876 18.5638 42.9445 18.2982 42.9445 18.0303C42.9445 17.456 42.7464 16.9702 42.3387 16.5706C41.9332 16.1666 41.4435 15.9668 40.8764 15.9668" fill="white"/>
    <path d="M47.3132 24.7246C45.9284 26.0095 45.2314 27.7688 45.2314 30.0003V36.4927H48.3997V28.897C48.3997 27.9822 48.5386 27.224 48.8279 26.6042C49.1103 25.9959 49.4816 25.5101 49.9439 25.1378C50.3972 24.7814 50.9119 24.5158 51.4882 24.3637C52.0531 24.2048 52.0872 24.1344 52.6498 24.1503L52.6247 22.7905C50.0077 22.7905 48.6981 23.433 47.3155 24.7201" fill="white"/>
    <path d="M63.0722 24.995C62.4891 24.3798 61.7808 23.9008 60.954 23.5444C60.1317 23.1858 59.2184 22.9973 58.2117 22.9814C57.2573 23.02 56.3781 23.2175 55.565 23.583C54.7587 23.9508 54.0595 24.4388 53.4627 25.054C52.8637 25.6624 52.4036 26.3752 52.0734 27.1743C51.7385 27.9801 51.5791 28.8405 51.5791 29.7531C51.6155 30.7451 51.8091 31.6486 52.1713 32.4681C52.5243 33.2921 53.014 34.0004 53.6131 34.5951C54.2257 35.1899 54.9318 35.6507 55.7472 35.9799C56.5604 36.309 57.4578 36.4725 58.4326 36.4725C61.3685 36.4725 62.997 34.9266 63.8421 34.1434L63.8512 33.1809C61.9516 34.6496 60.4597 35.0514 59.0339 35.0514C58.2117 35.0514 57.5147 34.9107 56.9681 34.6156C56.4214 34.3205 55.9773 33.9595 55.6402 33.5191C55.2985 33.0787 55.0457 32.5929 54.8885 32.0685C54.7268 31.5351 54.6289 31.0243 54.5742 30.5249H64.8123C64.8123 30.4159 64.8123 30.2752 64.8192 30.1049C64.8283 29.9324 64.8374 29.7939 64.8374 29.7099C64.867 28.8133 64.7349 27.9529 64.4251 27.1402C64.1108 26.3275 63.6644 25.6125 63.0722 24.9973M54.6038 28.845C54.6562 28.2911 54.7701 27.7577 54.9364 27.2378C55.1049 26.7248 55.3236 26.2708 55.6083 25.869C55.8976 25.4785 56.2415 25.1539 56.6583 24.9087C57.0683 24.6545 57.5466 24.5319 58.0978 24.5319H58.157C59.1615 24.5319 59.9882 24.8747 60.6214 25.5557C61.2751 26.2345 61.6555 27.3332 61.8035 28.845H54.6038Z" fill="white"/>
    <path d="M82.4984 33.7527C82.0838 33.3782 81.7444 32.8924 81.4848 32.3022C81.2183 31.7119 81.0862 30.9742 81.0862 30.0934V17.02H77.918V29.2307C77.918 31.4236 78.5717 33.1648 79.8859 34.4428C81.2024 35.7209 83.0359 36.3883 85.4069 36.4405V34.8378C84.9058 34.8197 84.4025 34.7311 83.8946 34.5609C83.3753 34.3997 82.9197 34.1273 82.4984 33.7527Z" fill="white"/>
    <path d="M99.9863 28.7452V22.7363H96.8181V30.8405C96.8181 33.3648 95.0164 34.8812 93.1898 34.8812C92.6249 34.8994 89.4863 34.7859 89.4863 30.1436V22.7386H86.3135V29.2946C86.3135 31.1538 86.6961 32.6951 87.4569 33.9096C88.2199 35.1287 90.058 36.5565 92.905 36.5565C95.7521 36.5565 96.8249 35.342 96.8386 35.3375V37.6621C96.8386 38.5519 96.6928 39.3079 96.4035 39.9185C96.1211 40.5269 95.7544 41.024 95.3057 41.3918C94.8547 41.7664 94.3514 42.0297 93.7751 42.175C93.2125 42.3202 92.6431 42.3952 92.0782 42.3952H91.7662V44.0001H92.0782C94.6361 43.9819 96.604 43.3304 97.9637 42.0569C99.3258 40.7743 100 39.0332 100 36.8221V28.7498H99.9863V28.7452Z" fill="white"/>
    <path d="M23.6228 33.1763L23.6502 33.1649C23.6502 33.1649 24.3631 -5.30827 10.2074 0.621165C10.1914 0.623435 10.1755 0.630242 10.1573 0.639322C10.1413 0.643862 10.1231 0.650679 10.1094 0.659759C-4.11686 6.41893 23.6251 33.1786 23.6251 33.1786L23.6228 33.1763ZM21.9282 29.0765C21.9282 29.0765 -0.160555 6.78214 10.8223 2.34415C10.8223 2.34415 10.8428 2.3328 10.8633 2.32826C10.8702 2.32145 10.8816 2.31691 10.8975 2.3101C21.8235 -2.26183 21.9487 29.0606 21.9487 29.0606L21.9305 29.0743L21.9282 29.0765Z" fill="white"/>
    <path d="M20.1267 24.3049C20.1267 24.3049 4.06914 7.22715 11.5171 4.13758C11.5285 4.13304 11.5376 4.13077 11.5422 4.1285C11.5535 4.12169 11.5604 4.11942 11.5672 4.11488C18.9719 0.923158 20.1449 24.2981 20.1449 24.2981L20.1267 24.3049Z" fill="white"/>
    <path d="M11.5673 4.11732C11.5673 4.11732 11.5537 4.12413 11.5423 4.13094C11.5377 4.13094 11.5263 4.13549 11.5172 4.14003C4.07154 7.2296 20.1268 24.3074 20.1268 24.3074L20.145 24.3005C20.145 24.3005 18.972 0.9256 11.5673 4.11732Z" fill="white"/>
    <path d="M0.49106 26.5702C0.481949 26.5816 0.481949 26.5929 0.477394 26.6043C0.470561 26.6179 0.466006 26.6293 0.459173 26.6361V26.6406C-3.85473 36.6584 23.6481 36.3747 23.6481 36.3747L23.6549 36.352C23.6549 36.352 4.6888 16.5025 0.49106 26.5702ZM20.7304 35.1443C20.7304 35.1443 -1.66361 34.8696 1.67089 27.1423V27.1377C1.67089 27.1377 1.67772 27.1241 1.68456 27.1105C1.68683 27.1037 1.68683 27.0923 1.69595 27.0855C4.93023 19.3173 20.7372 35.1239 20.7372 35.1239L20.7327 35.142L20.7304 35.1443Z" fill="white"/>
    <path d="M17.428 33.6121V33.6235C17.428 33.6235 0.707653 32.981 2.93293 27.6986C2.93293 27.6917 2.93293 27.6872 2.93977 27.6804C2.93977 27.6736 2.93977 27.669 2.93977 27.6622H2.94432C5.09216 22.3525 17.428 33.6121 17.428 33.6121Z" fill="white"/>
    <path d="M2.94435 27.6647H2.93979C2.93979 27.6647 2.93979 27.6783 2.93979 27.6828C2.93296 27.6896 2.93296 27.6942 2.93296 27.701C0.707679 32.9812 17.4257 33.6259 17.4257 33.6259V33.6145C17.4257 33.6145 5.09219 22.355 2.94435 27.6647Z" fill="white"/>
    </svg>
    